<?xml version="1.0" encoding="UTF-8" standalone="no"?>
<!-- Created with Inkscape (http://www.inkscape.org/) -->

<svg
   xmlns:dc="http://purl.org/dc/elements/1.1/"
   xmlns:cc="http://creativecommons.org/ns#"
   xmlns:rdf="http://www.w3.org/1999/02/22-rdf-syntax-ns#"
   xmlns:svg="http://www.w3.org/2000/svg"
   xmlns="http://www.w3.org/2000/svg"
   version="1.1"
   width="16"
   height="16"
   id="svg2985">
  <defs
     id="defs2987" />
  <metadata
     id="metadata2990">
    <rdf:RDF>
      <cc:Work
         rdf:about="">
        <dc:format>image/svg+xml</dc:format>
        <dc:type
           rdf:resource="http://purl.org/dc/dcmitype/StillImage" />
        <dc:title></dc:title>
      </cc:Work>
    </rdf:RDF>
  </metadata>
  <g
     id="layer1">
    <path
       d="M 8,0 C 3.6,0 0,3.6 0,8 c 0,4.4 3.6,8 8,8 4.4,0 8,-3.6 8,-8 C 16,3.6 12.4,0 8,0 z m 0,2 c 2.2,0 4,1.8 4,4 0,1.9 -1.3,3.4 -3,3.8 L 9,11 7,11 7,10 7,8 8,8 C 9.1,8 10,7.1 10,6 10,4.9 9.1,4 8,4 6.9,4 6,4.9 6,6 L 4,6 C 4,3.8 5.8,2 8,2 z m -1,10 2,0 0,2 -2,0 0,-2 z"
       id="path2997"
       style="fill:#000000;fill-opacity:1;stroke:none" />
  </g>
</svg>
